<svg id="Layer_1" data-name="Layer 1" xmlns="http://www.w3.org/2000/svg" viewBox="0 0 1133.86 1133.86"><defs><style>.cls-1{fill:#b79439;}.cls-2{fill:#1e130a;}.cls-3{fill:#fff;}.cls-4{fill:#f9f9fa;}</style></defs><rect x="-0.45" y="-0.45" width="1134.75" height="1134.75"/><path class="cls-1" d="M1090.39,593.09c-6,222.52-156.61,424.05-382.61,484.6-189.68,50.85-383-10.9-509.16-144.23,130.32,117.32,315.56,168.41,497.54,119.61,219.93-58.92,371.05-246.45,394.18-460Z"/><path class="cls-1" d="M935,688.1c-36.61,120.53-132.71,220-263.33,255-134.33,36-271.2-5.31-363.34-96.68,97.39,77.28,228.82,109.06,358.14,74.41C791.74,887.29,887.56,798.74,935,688.15Z"/><path class="cls-1" d="M440.49,80.16c220.6-59.12,446.12,34,565.12,215-124.93-166-342.42-248.51-555.42-191.45C202.78,170,44.3,402.36,62.46,648.72c-35-254.1,123.83-500.41,378-568.51Z"/><path class="cls-1" d="M629.83,146.06a199.18,199.18,0,0,1,18.64,21.27c7.88,10.42,8.89,16.49-.48,25.38-16.58,15.72-41,36.7-47.31,40.67-7.74,4.87-30.49,7.07-43.87,8.89-11,1.48-13.38,3.44-21.37,11.23l-4.87,4.73c-1.48,1.48-2.91.09-4-1l-85.11,83.16c3.49,3.58,2.82,9.37-.1,13.05-8.93,11.32-45.73,53.14-61.41,68-47.45,45.12-77.61,14.2-31.39-32.16,15.24-15.34,57.92-51.14,69.48-59.79,3.78-2.82,9.56-3.34,13.05.24l85.11-83.15c-1.05-1.1-2.39-2.54-.9-4l4.87-4.73c8-7.79,10-10.08,11.76-21.07,2.15-13.34,4.87-36,9.94-43.64,4.11-6.21,25.66-30.1,41.77-46.35,9.12-9.18,15.14-8,25.37.09A205.85,205.85,0,0,1,629.88,146Z"/><path class="cls-2" d="M616.07,167.33l-43.68,42.73c-3.64,3.53.09,6.83,3.34,4l46.07-40.48C626.49,169.43,620.85,162.7,616.07,167.33Zm-263,249a8,8,0,1,1-11.37-.15A8,8,0,0,1,353,416.37ZM608.23,159.3,564.5,202c-3.63,3.54-6.83-.24-3.87-3.44l41.58-45.12c4.2-4.54,10.85,1.2,6.07,5.88ZM594,146.45l-41.49,44.87c-3.44,3.73-6.83.14-4.06-3.25l39.14-47.17c4-4.78,10.9.62,6.36,5.55Zm34.55,35.36-45.88,40.38c-3.82,3.35-.29,6.84,3.15,4.11l48.13-38c4.87-3.87-.38-10.89-5.4-6.5Z"/><path class="cls-1" d="M289.33,237.3A216.08,216.08,0,0,0,283.78,265c-1.62,13,.53,18.74,13.14,21.75,22.23,5.3,53.86,11.28,61.32,11.56,9.13.34,29.92-9.12,42.44-14.19,10.32-4.21,13.33-3.73,24.13-1l6.6,1.68c2,.52,2.58-1.39,3-2.87l115.32,29.44c-1.25,4.87,2.24,9.51,6.59,11.28,13.38,5.35,66.19,23.13,87.22,28.19,63.66,15.34,74.31-26.52,11.13-43.58-20.88-5.64-75.74-15.34-90-17.06-4.69-.58-10,1.86-11.19,6.74L438.1,267.55c.38-1.48.81-3.4-1.25-3.92L430.26,262c-10.8-2.78-13.67-3.73-20.69-12.38-8.51-10.47-22.23-28.72-30.45-32.83-6.69-3.35-37.27-13.24-59.35-19.26-12.48-3.4-17.16.62-21.94,12.8a207.18,207.18,0,0,0-8.46,27Z"/><path class="cls-2" d="M311.83,248.86,371.05,264c4.92,1.24,3.34,6-1,5.11l-60.12-12C303.9,255.89,305.33,247.19,311.83,248.86ZM664.14,333a8.06,8.06,0,1,0,9.8-5.83A8.05,8.05,0,0,0,664.14,333ZM314.61,238l59.21,15.11c4.92,1.24,5.78-3.64,1.62-4.93L316.9,229.89c-5.93-1.87-8.79,6.45-2.29,8.12Zm5.83-18.25,58.35,18.16c4.87,1.53,6-3.3,1.86-4.83l-57.49-21.31C317.33,209.58,314,217.7,320.44,219.71ZM308.2,267.64l59.93,12.05c5,1,3.68,5.78-.67,5.16L306.77,276C300.65,275.05,301.66,266.35,308.2,267.64Z"/><path class="cls-3" d="M235.92,679.49l-.27,9.73-3.81,6.1,1.09,3.73a44,44,0,0,0-5.15,3.69l-.77.53q-.34,4.15-3.42,5.36-2.34,4.74-10.65,9.35c-1.91,4.1-4.47,6.71-7.66,7.86L201.85,729l-5.74,1.68-2.56,2.93-1.35.71a10.15,10.15,0,0,1-2.86,3l-2.48,3.21-6.6,1.94-2.6,3.87-11.57,6.2a72,72,0,0,0-6.72,2.59l-4.68,6.35a13.41,13.41,0,0,0-5.5.37l-1.72.51-1.67,1.73-3.48,2-2.07,2.48-1.84,1.17,4.63,4.11.12,7.72,5.06,8.76,1.92,6.56,1.9,2.24q6.28-.9,8.28,5.94,1.94,6.58-7.68,13.11l-7.27,4.93-12-8-7.17-10.66-3.2-10.9-6.11-6,1.94-4L117,780.37l-.38-2.38a87.68,87.68,0,0,1-11.89,1.93L90.91,769,112,761.27l-.84-2.88.62-3.93L109.53,742l1.14-2.21-4.07-10.69-.49-4.86-4.56-15.55,1.7-7.69.49-.77-.54-.78a10.22,10.22,0,0,1,2.9-7.11l6.23-2.13,2-.59q12.33-3.61,15,5.6,1.11,3.75-1,11.55l.42,1.44c.85,2.89,3.05,5.47,6.64,7.76l-3.68,2.32,2.11,7.21-3.46,4.14,2.62,3.61-1,5,2.47,5.21-.1,2.85,1,2.51,1.67-1.73,5.74-1.68a17,17,0,0,1,8.45-6.22l3-4.62a10.39,10.39,0,0,0,4.48,1.49q2.73-2.35,9.55-7.78l3.56-1.67,3.75-4.21,2.29-.67.12-.66,2-.59a17.45,17.45,0,0,0,9.31-6.46l6.31-1.85-.13-1.52,3.51-2.9,1.25-3.17a12.22,12.22,0,0,0,2.95-.55l1.15-5.63a4.39,4.39,0,0,1,2-1.82c.57-.17,1.07.11,1.48.81.3-1.12,1.38-2.37,3.26-3.76L211,692.1l1.58-2-.38-2.38-2.53-3.31-3.06-1.91-2.46.1-6.81-3-11.8-.9A87.8,87.8,0,0,0,170.36,676l-3.8,4-9.46-2.53-6.45,2.38-5-1.32L141,679.9l-4.68-1.12-1.14.34a4.86,4.86,0,0,1-1.35.7,14.44,14.44,0,0,1-7.81-.13l-7.15,1-5,2.17-6-.13-5.6,3.2-1-.32-3.89,2.7-3.77-.14.33,1.14-6.88,2-4.28,4.49-5.77,2.66-6.6,6.14-7.28-5.72a20.5,20.5,0,0,1-6.84-10.57l2.14-4.4A8.27,8.27,0,0,1,63,675.88q4.79-2.82,9.81-5.86l2.29-.68h1.25l2.11-.24-.56,1.28,5.52-3.48.86-.26,2.58-.75a11.09,11.09,0,0,1,6,.12l11.47-3.36,8.77-1.95,16.44-2.33,5.23,1.9,3.67-2.33,8-.18,8.6-2.52,1.65,1.39,6-1.77,7.77,2.08,6.48-1.27,2,1.59a18.28,18.28,0,0,1,11.42.7l5.39-2.83,4,5.06,3.82,1.37,4.88-1.43,5.32,4.36,12.75,3.11,1.26,4.3Z"/><path class="cls-3" d="M466.7,612.78l-2.6,3.87c.8.6,2.24,1.64,4.33,3.1l-8.88,10.07-1.15.34a11.58,11.58,0,0,1-4,.23l-2.6,3.88-5,.85-3.9,5.81-5.71-1.43L431.65,643l-4.73,5.12a3.46,3.46,0,0,0-1.52.14q-2.29.68-2.16,2.19l.48,10.13c.4,1.34.73,2.49,1,3.44a37.18,37.18,0,0,1,1,4.39l.38,2.37.74.41a21.06,21.06,0,0,1,.8,9.11,56.16,56.16,0,0,1,3.57,5.8l-2,2.76,3.89,10.07,1.79,15.67.55,2.95a37.08,37.08,0,0,1,1.92,4.42l.42,1.44,2.27,2.44,1.52,5.16a28.7,28.7,0,0,1-.2,4.73q2.56,9.82-11.22,14.5l-2.43-6.14-3.42-3L421,736.39l-2.94-10-3.49-5.52.7-.82-2.12-4-2.11-7.17-2.41-11.43-2.95-10-.82-6L403,674.74a25.09,25.09,0,0,1-.74-5.7,23.72,23.72,0,0,0-.65-5.41,10.13,10.13,0,0,0-3.32-5l-.82-.69-.69.82-4.07,0a37.53,37.53,0,0,1-9.33,4.29,26.85,26.85,0,0,1-4.67,1.06l-11.23,7.34-13.61,2.43q-5.34.95-7.34,1.53a39.84,39.84,0,0,0-9.73,5l-1.15.34-5.76,4.8-5.51-1.81-6.75,3.54-1-.32-1,.91-5.82,1.39.1,2.46-9-.8-6.91,3,3.86,13.19L299,714l2.45,5.2-.46,4.8,2.9,3.51,1.89,12.83,2.82,3.23.87,7.21,4.26,5-.68,3,1.87,3.19q1.56,6.39-5.32,8.41-11.76,3.45-18-17.77l-5.45-3.7-2.44-3a11.59,11.59,0,0,1-.13-6.81l-.85-5-1.7-2.62-8-21.94-1.77-6-.82-.69-6.66-1.47-5-13.8,6.68-6.94a40.53,40.53,0,0,0-1.93-11.89,39.22,39.22,0,0,0-4.71-10.76l2,.35-1.47-3.93,0-6.52-4.66-9.53-1.94-6.6L251.77,621l9.42-9.3,6.62,2.4,6.6.23,2.7,6,3.67,2.95q-.27,4.43-.15,9a54.67,54.67,0,0,1,3.7,9.45,64.41,64.41,0,0,1,2.6,16.29l4.17,4.66-1.7,4.84,1,3.43,2.84.1,6.88-2,4.87-1.43,7.49-3.13,2.55.19,3.15-.93,3.44-1,.58-.17,4.3-1.26c.19-.06,1.65-.57,4.37-1.54s5.52-1.88,8.39-2.72l3.89-3.74,5,1.09,4.37-1,1.51-.16,3.73-1.09,1.43-.42,29.39-12.35,4.38-1,1.19-1.28-3.44-4.28.75-4.89L386,616.83l.88-4.31-9.22-12.23-1.15-1.87L375,597.29c.08-.44.21-1.43.38-3l.24-1.33-.34-1.16q-.69-2.33,3.16-5.67l.38-9,8.23-.73,4,1.2,7.27-4,1.18,4,4-2.12,3.95,13.48-.76,2.72,4,5.06,1.09,3.72,2.78,4.17-.7,6.12,1.95,3.48,2.44,13.61.58,2,5.94-2L435.16,622l5.61-1,3.28-1.58,6.31-1.85a11.25,11.25,0,0,1,4.53-2.58,11.73,11.73,0,0,1,4.64-.11Z"/><path class="cls-3" d="M704.2,651.83l-1.83,8.63L695,665.11a28.62,28.62,0,0,1-8.17,6.13l-2.76,3.3a13.4,13.4,0,0,0-1.93.88l-2.29.67q-10.9,3.2-19-2.21l-2.31-1.5-2.09.3a13.87,13.87,0,0,1-10.32-2.27q-3-2.85-6.4-5.91l-2-1.58-4.11-6.58-4.87-3.87-4.48-6.78-4.09-4.41L608,616.82l-2.61-8.89-1.21,2.23-3.47,4.13q1.15,5-2.87,6.13l-1.94,4-3.34,3.47-2,3.71a8.93,8.93,0,0,1-3.56,7l-2.35,4.73-4,3.35L578.44,652,560,675.1l-8.27,9-5,6.43-3.68,2.33-5.48,7.83-5,4.26-9.46,2.78L516,703.26l-4.77-1.41-1.52-5.17-2.88-1.34-8-16.68-1.53-2-4.77-12,.12-6-1.87-3.2-.4-4.56-4.85-12.3-2.11-1.89q-.89-4.73.56-7.65l-.34-1.14-.91-6.29-3.1-3.15-1.77-6L479,609l-2.13-4.06-.35-8.63-4.95-9.47.54-4.53-3.32-4.95,2-4a6.15,6.15,0,0,1,4.64-4.79l2.34-.69,7.62-.05a8.33,8.33,0,0,1,5.83,3.58q2.76.75,6.87,6.08l-1.69,4.86q.39,15.13,1.57,19.15l.25.86a10.39,10.39,0,0,0,5,5.39q.94,18.09,4.06,28.7l.58,2,3.59,2.68.7,6.65,2,8.77,3.24,4.65-3.21,5q7.7,9.27,9,13.57l7.74-2.27a16.24,16.24,0,0,1,1-3.09l4.22-1.54,2.26-5a27.46,27.46,0,0,1,4.56-5.69,9.23,9.23,0,0,1,4.24-4.67l6.11-6.77L552,647.86l6.26-3.08,3.36-6.59.12-.65.49-.46,1.33-2.88,2.63.47,2.2-3.13.61-6.41,2.38-.38a54.06,54.06,0,0,1,5.05-6.15l.52-1.4,1.22-2.23-1.35-4.58,4.46-2.87,2.06-4.65,2.73-2.36-.6-4.18,2-.59a10.19,10.19,0,0,1,3-3.67l-.84-2.87L593,587l2.18-10.6.28-7.55L594.41,562l1.72-5.8-.43-3.61-1.61-7.62.49-5.75,5.4-8.12,9.58,1.86,2.68,1.7a49.71,49.71,0,0,1,10.25,4.16l-1,5.26,1.09,3.73q.74,5.7-3,9l-.91,4.31,1.34,4.59-.66,5.18,2.56,7.65A3.31,3.31,0,0,1,619.9,581a2.17,2.17,0,0,1-.94,0q5.06,1.32,6.74,7.05a10.64,10.64,0,0,1,.55,2.95l-2.21,1,1.7,2.62,1.32,7.7,3.36,4,1,6.56a18.11,18.11,0,0,1,1.37,3.65,9.57,9.57,0,0,1,4,5.06c.06.19.17.57.34,1.15a2.53,2.53,0,0,0,0,1.23l2.15,3.1A107.86,107.86,0,0,0,652.07,645l4.12,3.46,1.37,1.47,3.71,2,8.44,4.38,4.84-.49.88-3.37,5.09.38,1-.91a13.07,13.07,0,0,1,7-4.85,116.32,116.32,0,0,1,11.6-1.85Z"/><path class="cls-3" d="M882.78,562.12q1,3.45-1.29,9.41a34.67,34.67,0,0,1-8.41,12.74,9.18,9.18,0,0,1-4.2,3.72,21.12,21.12,0,0,1-8.94,6.67c-1,1.74-2.88,3.65-5.79,5.75L849,601.92l-4,5.53-5.78.45-1.64.79-4.13,1.83a57.64,57.64,0,0,1-7,2.68,13.15,13.15,0,0,1-2.09.3l-2.3.67-3.59,2.61L812.9,619,806.31,621l-2.63,2.72,1.17.82q-6.6,1.93-10.24,3.31l-1.51.13L781,630.32l-16.84,4.16-5.77.52a11,11,0,0,1-5.51,3.49,16.92,16.92,0,0,1-9.08-.14L739,642l-3.62-1.74q-12.12,3.24-14.72,1.82l-1.32-.23q.87-.25-4.7,2l-13.37-4.18-5.5.37a20.48,20.48,0,0,1-10.67-5.59,19.48,19.48,0,0,1-5.64-8.62c-.61-2.11-.75-6.11-.41-12l3.89-8,7-1.73a8,8,0,0,1,5.67-5.08q9.18-2.7,13.52,12.13c-3.73,2.14-5.89,3.62-6.48,4.42a23.85,23.85,0,0,1-3.2,5l.26.87,3,.6,4.48,2.51,11-3.85,10.3.09,14.83-4.65,6.54,2.12,2.08-2.47a12,12,0,0,1,4.62-.17l7.78-1.09,1.1,1.66,4.59-1.35c3.95-2.81,6.21-4.31,6.78-4.48l3.44-1,6.6-1.94,5.16-1.51,4.59-1.34,5.45-1.6,5.83-3.48,2.2-4.17,11.23-2q7.56-5,12.43-6.45l1.44-.42a6.5,6.5,0,0,1,3-2.44,4.73,4.73,0,0,1,2.17,0l2.54-2-.68-2.29,6-1.77q1.26-3.17,6.33-5,2.93-4.9,5.42-5.95l1.29-4.11q-.76-2.58-21.63-5.81l-2.8-1a34.66,34.66,0,0,1-10,.77,24.6,24.6,0,0,1-3.81.81l-.58.16q-1.43.43-12.19-.16a11.53,11.53,0,0,0-7.26-.36,16.06,16.06,0,0,0-3.28,1.58l-5.73,1.68-1.11-.61a20.25,20.25,0,0,1-7.93-.47l-3.1,2.15-10.15-1.69-5.74,1.68-4.4-1.2L755.71,562l-1.28-1.19-4.59,1.35-5.36-3.41-2,.59c-5.92,1.73-10.84,1.95-14.76.62l-.74-.4q-6.88-.14-11-3.56l-6.21-3.11-5.32-6.46-4.77-3.53-2-12.07,4.55-10c1.09-.52,1.59-2,1.5-4.44a20.65,20.65,0,0,0,2.45-2.27l12.29-12.23,4-1.18a15.63,15.63,0,0,0,7.47-5.31l1.72-.5.17.58,2.11-3.43,1.43-.42q8.18-6.12,14.19-7.89l1.44-.42,2.66-.47,3.55-3.84a30,30,0,0,1,4.5-1.63l1.72-.51q2-.59,6.86-2.63t7.63-3.17l5.08-1.8,6.56-6.29a28.12,28.12,0,0,1,5,3.21l6.31-1.85a27.39,27.39,0,0,1,6.73-.41l2-.59a22,22,0,0,1,12.32-.47q16.3-.69,19.69,10.89,2.89,9.85-12.29,16.49l-3.3-2.77c-.63,0-1.74-.11-3.35-.26a30.4,30.4,0,0,0-3.63-.18l-6.31,1.85L809,486.61l-4.42,1.92-1.74,3.63-8.31-2.86-7.12,3.33-9.48.6a38.62,38.62,0,0,0-13,7.56l-.49.45a11,11,0,0,1-1.57,1.55,4.44,4.44,0,0,1-1.16.81l-4.52-.54-6.93,6.08-13.74,8.38-3.69.15-5.13,5.86-2.87.85-1,3.08-4.85,5.78,1.08,1.55L724.1,537l3.12,0,5.43,1.52,9.81.55,4.38-1,9.09,2.32,2-1.54q8.82-.7,12.53,1.31l1.11.61.58-.17,6.74,1.76,1.42-2.59,7.13-1.16,1.15-.33,4-1.18,4.94,2,2-.59a30.85,30.85,0,0,1,8.94-1.38l2.86-.84q5.16-1.51,12.9,1.52l3.11-2.16,2.91.39,4.88-1.43,10,3.3L854,536.3l4.78,3.58q11.52,3.17,15.83,6.72t6.75,11.88a8.18,8.18,0,0,0,.79,1.64C882.42,560.88,882.61,561.55,882.78,562.12Z"/><path class="cls-3" d="M1111.3,536.55q1.82,7.26-6.52,12.81l-12.41-2-3.15.92-4.57-1.78-4.59,1.35-5.12-4.73-3.29-.59-5.66-5.5-6.76-3.94-.67-2.29-2.88-1.34-1.92-4.41-4.74-2.35-10-11.72-3.5-2.39-3.5-7.69-5.16-3.79-6.27.91-5.51,5.66-1.85-1-3.75,4.22-2.35-2.74a24.39,24.39,0,0,1-4.22,1.55,27,27,0,0,1-4.67,1.06l-2.3.67-5.09,4.92L984,513.45l-1.15.34-3.83,3.92-4.15-.34q-5.45,1.61-8.36,1.21l-1.43.42-6.45,5.63-3.79-2.32-5.59.08-.89,1.2q-3.87,10.17-5.73,14.44l-4.25,2.49q-6.28,19-8.8,21l-1.07.62L922.64,576l-1.14.34-3.13,10.57-9.13,9.21a26.53,26.53,0,0,1-4.42,1.92,16.73,16.73,0,0,1-11.5-1l1.34-8.18-1.26-4.3.72-1.77-1.1-5.9,8.55-3.75,1.87-2.11a8.22,8.22,0,0,0,2.25-7.2q4.74-2.94,4.63-7.58a19.94,19.94,0,0,0,6.34-15.56l4.37-3.15,4.06-12.71a23,23,0,0,1-5.8-7l4.59-6.64-1.59-5.44,11.43-2.42,2.45-2.27a10.87,10.87,0,0,1,3.72-8.57l-1-5.61,5.1-4.92a17.6,17.6,0,0,1,2.74-2.36l-.51-1.72a9.56,9.56,0,0,1-.2-4.93,15,15,0,0,0,2.87-13.6l3.76-2,.67-3,1.93-.87,2.42-11.92,1.43-.42,2-1.75-2.12-7.24,2-.59q4.89-9.84,4.22-12.13l1.1-1.57-2.69-3.88Q968,403.57,972.23,402l4.1-6.19,8.16,4.46,9.29,1.95,3,7.2a18.5,18.5,0,0,1,3.3,2.77,19.91,19.91,0,0,1,7.53,8.69l3.83,6.67,6.15,5,5.35,8.71,1.92,4.42,7,4.79-.56,2.35,2.88,1.33,1.68,5.74,1.84,4.13c.26,3,.29,4.17.06,3.41l1.85,1,2.4,1.79a25.79,25.79,0,0,0,5.19-2.46l8.61-2.52a16.18,16.18,0,0,0,3.6-.43,6.61,6.61,0,0,0,3.21-2.35q1.49-1.83,5.5-3,2.86-.84,9.44.35l8.77-1.95a16.3,16.3,0,0,1,1.58,3.27q1.26,4.31-2.36,7.86l-4.73-.18-6.34,8.09-6.85,1.08-2.45,2.27-6.14,2.42-.33-1.15-7,3.91.22,1.81,2.5,6.42,5.24,4.07,2.09,5,9.28,7.25.35,3.32,3.34,1.82,10,8.6,6.3,3.44,1.82,2,5.92,1.07,3.35,4Zm-93.52-56.65-.28.08-4.08-2.22,2.61-3.87c-2-.88-3.32-2.65-4.1-5.32l-2.39-.54-4.9-11.29-4.8-3.94-2.3-4.64-.91-1-2,.59-3.88-10.07-3.68-3-1.6-.15-1.19-.9-.56,2.34-4.36,10.62-.86,5.55L974.28,459l.37,5.5-5.75,4.79q1.08,9-5,14.85l-.33,6.33L961,495.3l2.58-.75a29.52,29.52,0,0,0,9.11-.8l1.15-.34a8,8,0,0,1,3.18-1.87,12.09,12.09,0,0,1,4.93-.19l1.23-.05a38.11,38.11,0,0,1,5.36-1.89,65,65,0,0,1,7-1.73l9.7-4.09,7.6,1.51q4.29-3.44,4.56-5.7a.27.27,0,0,0,.37.21Z"/><path class="cls-4" d="M286.34,913.77A1.43,1.43,0,0,0,287,912a6.17,6.17,0,0,0-2-2.54l1.33-1.52,8.07,7.07-1.33,1.52a5.46,5.46,0,0,0-2.41-1.39,2.77,2.77,0,0,0-2.16.56l-31.72,21.56-2.31-2,16.9-34.69a2.69,2.69,0,0,0,.25-2.13,5.46,5.46,0,0,0-1.64-2.13l1.32-1.51,11.36,10-1.33,1.52a6.42,6.42,0,0,0-2.64-1.57,1.49,1.49,0,0,0-1.73.7l-14.16,24.44Z"/><path class="cls-4" d="M292.76,961.56a6.09,6.09,0,0,0,2.77,1.17,1.93,1.93,0,0,0,1.74-1l17.6-26.8a2,2,0,0,0,.23-2,6,6,0,0,0-2.17-2.08l1.1-1.68,12.46,8.18-1.1,1.68a5.94,5.94,0,0,0-2.77-1.16,1.94,1.94,0,0,0-1.74,1l-17.6,26.8a1.92,1.92,0,0,0-.23,2,5.91,5.91,0,0,0,2.17,2.07l-1.1,1.69-12.46-8.19Z"/><path class="cls-4" d="M332.06,985.43a6,6,0,0,0,2.89.81,1.94,1.94,0,0,0,1.6-1.22l14.1-28.8a1.93,1.93,0,0,0,0-2,6,6,0,0,0-2.42-1.79l.89-1.81,17,8.33a3.64,3.64,0,0,0,2.11.52,2.4,2.4,0,0,0,1.45-1.07l2,1-1.78,10.08-2.18-.52a16.62,16.62,0,0,0-.21-4.47,5.12,5.12,0,0,0-1.66-2.74,18.83,18.83,0,0,0-3.88-2.39l-3.86-1.89L351,971.83l1.5.74q4,1.95,5.7-1.57l2.13,1L356,981l-2.14-1a3.77,3.77,0,0,0,.37-3.15,5.11,5.11,0,0,0-2.63-2.31l-1.5-.74-8,16.36,6.23,3.05a14,14,0,0,0,4.25,1.47,4,4,0,0,0,3-.82,14.49,14.49,0,0,0,3-3.54l2,1-4.83,9.87-2.14-1a1.88,1.88,0,0,0-.55-1.72,9.53,9.53,0,0,0-2.69-1.74l-19.21-9.41Z"/><path class="cls-4" d="M392.06,1011.54a6,6,0,0,0,3,.43,1.94,1.94,0,0,0,1.43-1.41l11-32.59-.79-.26a11.54,11.54,0,0,0-4.19-.74,6,6,0,0,0-3.38,1.36,22.07,22.07,0,0,0-3.68,3.95l-2.09-1.23,6.35-9.95,2.07.7a2.45,2.45,0,0,0,.31,1.79,3.94,3.94,0,0,0,1.85,1.06l15.58,5.27a3.82,3.82,0,0,0,2.14.27A2.26,2.26,0,0,0,423,979l2.07.7-1,11.77-2.41-.3a22.87,22.87,0,0,0-.52-5.37,6,6,0,0,0-1.83-3.12,11.8,11.8,0,0,0-3.81-2l-1.15-.39-11,32.59a1.94,1.94,0,0,0,.28,2,5.9,5.9,0,0,0,2.62,1.47l-.64,1.9-14.12-4.78Z"/><path class="cls-4" d="M442.82,1026.65a6,6,0,0,0,3,0,1.94,1.94,0,0,0,1.21-1.6l5.76-31.55a1.91,1.91,0,0,0-.56-1.92,5.93,5.93,0,0,0-2.81-1.07l.36-2,11.13,2,8.7,27.78,3.85-21.07a1.93,1.93,0,0,0-.56-1.92,6,6,0,0,0-2.81-1.07l.36-2L481,994.24l-.36,2a6,6,0,0,0-3,0,1.91,1.91,0,0,0-1.21,1.6l-6.55,35.82-3.1-.57-11.41-36.89-5.37,29.4a1.93,1.93,0,0,0,.56,1.93,6.05,6.05,0,0,0,2.81,1.06l-.36,2-10.56-1.93Z"/><path class="cls-4" d="M508.08,1033.75a1.54,1.54,0,0,0,.62,1.82,6,6,0,0,0,3.06.83l-.13,2-10.71-.74.14-2a5.57,5.57,0,0,0,2.8-.36,2.79,2.79,0,0,0,1.34-1.76l12.17-36.36,3.08.21,7.37,37.82a2.7,2.7,0,0,0,1,1.9,6,6,0,0,0,2.7.65l-.14,2-14.87-1,.14-2a7.22,7.22,0,0,0,3.27-.29,1.35,1.35,0,0,0,.72-1.67l-1-5.57-9.87-.68Zm2.44-7.35,8.72.6-3-17.58Z"/><path class="cls-4" d="M560.87,1038.39a5.86,5.86,0,0,0,2.92-.71,1.92,1.92,0,0,0,.8-1.84l-1.84-32a1.94,1.94,0,0,0-1-1.74,5.94,5.94,0,0,0-3-.37l-.11-2,12.63-.73,11.14,29.36,7.27-30.41,12.31-.71.12,2a6.16,6.16,0,0,0-3,.69,2,2,0,0,0-.73,1.86l1.84,32a1.91,1.91,0,0,0,1,1.73,5.92,5.92,0,0,0,3,.38l.12,2-14.75.84-.12-2a5.86,5.86,0,0,0,2.92-.71,1.94,1.94,0,0,0,.8-1.84l-1.79-31.14-8.74,36.1-2.95.17-13.86-34.1,1.74,30.44a1.94,1.94,0,0,0,1,1.74,6.1,6.1,0,0,0,3,.37l.11,2-10.71.61Z"/><path class="cls-4" d="M635.56,1031.42a5.85,5.85,0,0,0,2.79-1.11,1.92,1.92,0,0,0,.53-1.93l-6.25-31.45a2,2,0,0,0-1.23-1.58,6,6,0,0,0-3,0l-.39-2,18.59-3.7a3.78,3.78,0,0,0,2-.86,2.34,2.34,0,0,0,.5-1.74l2.15-.43,4.69,9.1-2,.91a16.11,16.11,0,0,0-2.87-3.42,5.05,5.05,0,0,0-3-1.18,18.38,18.38,0,0,0-4.53.46l-4.22.84,3.13,15.72,1.64-.33q4.35-.85,3.58-4.7l2.33-.46,1.95,9.81-2.33.46a3.81,3.81,0,0,0-1.62-2.73,5.12,5.12,0,0,0-3.49-.24l-1.64.32,3.55,17.86,6.81-1.35a14.39,14.39,0,0,0,4.27-1.41,4,4,0,0,0,1.9-2.48,14.33,14.33,0,0,0,.25-4.65l2.21-.44,2.14,10.77-2.33.46a1.91,1.91,0,0,0-1.48-1,9.71,9.71,0,0,0-3.2.24l-21,4.18Z"/><path class="cls-4" d="M691.44,979.15a5.73,5.73,0,0,0-3.18,2.53,4.21,4.21,0,0,0-.51,3.64,6,6,0,0,0,1.78,2.58,16.39,16.39,0,0,0,3.8,2.31l8.19,4a48.45,48.45,0,0,1,5.55,3.1,13.66,13.66,0,0,1,3.22,2.93,12.65,12.65,0,0,1,1.86,3.65,7.92,7.92,0,0,1,0,5.09,11.33,11.33,0,0,1-3,4.67,13.59,13.59,0,0,1-5.25,3.14,16.54,16.54,0,0,1-3.77.87,15.83,15.83,0,0,1-2.47,0,4.08,4.08,0,0,0-1.55.12,2.63,2.63,0,0,0-1.06.67,1.33,1.33,0,0,0-.46.87l-2.13.72-3.67-10.92,2.07-.7a13.8,13.8,0,0,0,5.22,5.44,7.16,7.16,0,0,0,5.9.63,5.89,5.89,0,0,0,3.57-2.8,5.51,5.51,0,0,0,.18-4.42,8.68,8.68,0,0,0-2.52-3.66,22.73,22.73,0,0,0-5.23-3.26l-6.79-3.27a29.93,29.93,0,0,1-6.24-3.84,9.74,9.74,0,0,1-2.85-4.24,6.58,6.58,0,0,1,.18-4.53,11.56,11.56,0,0,1,3-4.32,13.16,13.16,0,0,1,4.89-2.91,13.08,13.08,0,0,0,3.18-1.41,2.67,2.67,0,0,0,1.08-1.63l2.07-.69,5.82,8.42-1.92,1.16a25.47,25.47,0,0,0-3.44-3.2,6.19,6.19,0,0,0-2.67-1.17A6.61,6.61,0,0,0,691.44,979.15Z"/><path class="cls-4" d="M741.94,1000.2a6,6,0,0,0,2.5-1.67,1.92,1.92,0,0,0,.12-2l-12.63-29.47a1.94,1.94,0,0,0-1.53-1.3,6.07,6.07,0,0,0-2.93.67l-.79-1.85,17.41-7.47a3.6,3.6,0,0,0,1.77-1.26,2.37,2.37,0,0,0,.14-1.8l2-.86,6.47,7.93-1.82,1.31a16.15,16.15,0,0,0-3.52-2.75,5.08,5.08,0,0,0-3.16-.54,18.93,18.93,0,0,0-4.34,1.39l-3.95,1.7L744,977l1.54-.66q4.08-1.74,2.53-5.34l2.19-.94,3.94,9.19-2.19.94a3.79,3.79,0,0,0-2.15-2.33,5,5,0,0,0-3.46.48l-1.54.66L752,995.69l6.38-2.73a14.22,14.22,0,0,0,3.89-2.26,4,4,0,0,0,1.34-2.82,14.47,14.47,0,0,0-.71-4.6l2.07-.89,4.32,10.09-2.19.94a1.92,1.92,0,0,0-1.66-.71,9.5,9.5,0,0,0-3.07.91L742.73,1002Z"/><path class="cls-4" d="M826.31,957.58a5.92,5.92,0,0,0,2.17-2.08,2,2,0,0,0-.23-2L810.6,926.73a1.91,1.91,0,0,0-1.73-1,6,6,0,0,0-2.77,1.17L805,925.22l12.45-8.2,1.11,1.68a5.92,5.92,0,0,0-2.17,2.08,1.9,1.9,0,0,0,.23,2l17.64,26.78a1.94,1.94,0,0,0,1.74,1,6.09,6.09,0,0,0,2.77-1.17l1.1,1.68-12.44,8.2ZM829.77,932a10.29,10.29,0,0,1,5.54-1.76,11.29,11.29,0,0,1,5.61,1.35,12,12,0,0,1,4.48,4.17l1.38,2.09a5.47,5.47,0,0,0,3.15,2.44,4.35,4.35,0,0,0,3.64-.67l.59-.39,1.1,1.68-.59.39q-5.2,3.44-9,2.91c-2.56-.35-4.85-2.06-6.86-5.11l-1.8-2.72a5.37,5.37,0,0,0-3.37-2.44,4.94,4.94,0,0,0-4,.76l-1.45.95-1.2-1.81-1.51-17.36c0-.59-.4-.88-1.12-.88a4.6,4.6,0,0,0-2.48.91l-1.1-1.68,9-5.9,1.11,1.68a6.7,6.7,0,0,0-2.18,2,4,4,0,0,0-.42,2.52Z"/><path class="cls-4" d="M875.49,922.88a6,6,0,0,0,1.94-2.29,1.92,1.92,0,0,0-.44-2l-20.33-24.8a1.93,1.93,0,0,0-1.83-.81,5.93,5.93,0,0,0-2.63,1.45l-1.28-1.55,11.53-9.45,1.27,1.55a5.89,5.89,0,0,0-1.94,2.3,1.94,1.94,0,0,0,.44,1.95l20.33,24.8a1.94,1.94,0,0,0,1.84.81,6,6,0,0,0,2.63-1.45l1.27,1.55-11.52,9.46Z"/><path class="cls-4" d="M914.86,887.81a5.9,5.9,0,0,0,1.66-2.51,1.92,1.92,0,0,0-.67-1.89l-24.79-23.85-.58.6a11.45,11.45,0,0,0-2.44,3.48,5.91,5.91,0,0,0-.22,3.63,23.12,23.12,0,0,0,2,5l-2,1.37-6.3-10,1.51-1.58a2.5,2.5,0,0,0,1.76.49,4,4,0,0,0,1.74-1.22l11.4-11.85a3.88,3.88,0,0,0,1.16-1.83,2.25,2.25,0,0,0-.56-1.7l1.52-1.57,10.22,5.91-1.29,2a22.74,22.74,0,0,0-5.08-1.81,6,6,0,0,0-3.6.33,11.51,11.51,0,0,0-3.41,2.6l-.85.88,24.79,23.85a1.94,1.94,0,0,0,1.92.6,5.92,5.92,0,0,0,2.44-1.75l1.45,1.39L916.31,889.2Z"/><path class="cls-4" d="M926.59,813.09a13.36,13.36,0,0,0,1.75-3,2.72,2.72,0,0,0-.08-2l1.26-1.78,9.66,3.4-.87,2.06a24.77,24.77,0,0,0-4.67-.56,6,6,0,0,0-2.84.62,6.56,6.56,0,0,0-2.1,2,6.08,6.08,0,0,0-1.17,4.5,5.42,5.42,0,0,0,2.32,3.82L951,837.26a5,5,0,0,0,4.09.9,5.84,5.84,0,0,0,3.64-2.49,6,6,0,0,0,1-5.29,9.17,9.17,0,0,0-3.82-5l-.71-.5,1.61-2.25,0,0q4.83,3.44,5.64,7.21c.55,2.51-.23,5.24-2.31,8.17s-4.69,4.81-7.59,5.32-5.83-.28-8.78-2.38L928.69,830.2q-4.65-3.3-5.18-7.67T926.59,813.09Z"/><path class="cls-4" d="M980.82,794.92l-29-13.7a1.91,1.91,0,0,0-2,0,5.92,5.92,0,0,0-1.76,2.44l-1.82-.86,6.37-13.48,1.82.86a6,6,0,0,0-.77,2.9,1.91,1.91,0,0,0,1.24,1.58l12.53,5.92,4.47-9.46-12.53-5.92a2,2,0,0,0-2,0,6,6,0,0,0-1.75,2.44l-1.82-.86,6.31-13.36,1.82.86a6.08,6.08,0,0,0-.77,2.91,1.94,1.94,0,0,0,1.24,1.58l29,13.69a2,2,0,0,0,2,0,6.08,6.08,0,0,0,1.75-2.44l1.82.85-6.32,13.36-1.81-.85a6.08,6.08,0,0,0,.77-2.91,2,2,0,0,0-1.24-1.58L974,772.16l-4.47,9.47,14.35,6.78a2,2,0,0,0,2,0,6.34,6.34,0,0,0,1.76-2.52l1.82.86-6.37,13.48-1.82-.86a6.15,6.15,0,0,0,.82-2.95A2,2,0,0,0,980.82,794.92Z"/><path class="cls-4" d="M1006.14,743.23a6,6,0,0,0,.48-3,1.9,1.9,0,0,0-1.38-1.46L975.06,728a1.94,1.94,0,0,0-2,.24,6,6,0,0,0-1.51,2.6l-1.89-.68,6.4-17.84a3.7,3.7,0,0,0,.28-2.15,2.36,2.36,0,0,0-1.23-1.33l.74-2.05,10.21.66-.27,2.22a16.54,16.54,0,0,0-4.41.7,5.11,5.11,0,0,0-2.55,2,18.53,18.53,0,0,0-1.94,4.11l-1.45,4.05,15.08,5.42.57-1.57q1.5-4.17-2.19-5.5l.81-2.23,9.41,3.38-.8,2.23a3.8,3.8,0,0,0-3.18,0,5.1,5.1,0,0,0-2,2.86l-.57,1.57,17.14,6.15,2.34-6.53a14.49,14.49,0,0,0,1-4.38,4.05,4.05,0,0,0-1.15-2.91,14.77,14.77,0,0,0-3.86-2.61l.76-2.12,10.33,3.71-.8,2.24a1.89,1.89,0,0,0-1.65.74,9.65,9.65,0,0,0-1.43,2.86L1008,743.91Z"/><path class="cls-4" d="M1023.91,689.5a5.93,5.93,0,0,0,.13-3,1.91,1.91,0,0,0-1.54-1.28L991.25,678a1.93,1.93,0,0,0-2,.47,5.86,5.86,0,0,0-1.19,2.76l-2-.45,2.53-11,28.14-7.44L996,657.56a1.92,1.92,0,0,0-2,.48,6,6,0,0,0-1.2,2.75l-1.95-.45,2.4-10.45,2,.45a5.93,5.93,0,0,0-.13,3,1.91,1.91,0,0,0,1.54,1.28l35.49,8.16-.71,3.07L994,675.58l29.14,6.7a1.89,1.89,0,0,0,1.94-.48,6,6,0,0,0,1.2-2.76l2,.46L1025.87,690Z"/></svg>